<svg width="500" height="500" fill="none" xmlns="http://www.w3.org/2000/svg"><rect width="500" height="500" rx="25" fill="#FFF0C2"/><path d="M160.176 161.324a2.057 2.057 0 01-.13.455 2.667 2.667 0 01-2.451 1.522c-2.738 0-4.063-1.148-4.707-2.147h-7.874c-.648.999-1.968 2.147-4.706 2.147a2.666 2.666 0 01-2.451-1.522 2.005 2.005 0 01-.13-.455 2.472 2.472 0 00-.856.487 3.305 3.305 0 00-.885 2.564 2.182 2.182 0 00.973 1.925 6.091 6.091 0 005.135.29 11.71 11.71 0 003.861-2.899c.019-.023.04-.044.061-.065a1.086 1.086 0 011.461-.079c.434.356.52.982.199 1.441-1.096 1.905-2.711 5.572-2.021 7.637a9.124 9.124 0 002.216 3.375v-6.257c0-.593.484-1.074 1.08-1.074.597 0 1.081.481 1.081 1.074V176a9.137 9.137 0 002.216-3.375c.697-2.083-.955-5.798-2.047-7.679a1.07 1.07 0 01.129-1.301l.032-.032a1.079 1.079 0 011.602.105 11.563 11.563 0 003.847 2.876c1.669.666 3.55.56 5.132-.29a2.178 2.178 0 00.973-1.929 3.297 3.297 0 00-.885-2.564 2.459 2.459 0 00-.855-.487zm-6.86-.402c.596 0 1.08-.481 1.08-1.073 0-.593-.484-1.074-1.08-1.074h-8.644c-.596 0-1.08.481-1.08 1.074 0 .592.484 1.073 1.08 1.073h8.644z" fill="#F3E4B6"/><path d="M173.958 148.943c-.207-2.054-1.335-5.5-6.591-5.5-10.565 0-14.729 10.873-15.175 12.132a1.103 1.103 0 01-1.196.723 1.064 1.064 0 01-.915-1.045c0-.087.011-.172.032-.256 1.236-7.897 3.819-11.134 5.896-13.742 1.576-1.971 2.715-3.395 2.715-6.401 0-5.19-5.71-10.479-8.643-12.854v11.781c0 .593-.484 1.073-1.081 1.073s-1.08-.48-1.08-1.073v-11.779c-2.934 2.377-8.644 7.672-8.644 12.852 0 3.006 1.139 4.43 2.715 6.405 2.076 2.603 4.658 5.839 5.895 13.728a1.075 1.075 0 01-.876 1.325 1.08 1.08 0 01-1.197-.724c-.443-1.252-4.606-12.145-15.18-12.145-5.256 0-6.384 3.446-6.59 5.5-.427 4.294 2.391 9.749 6.806 10.629 1.235.265 2.503.338 3.76.214a9.255 9.255 0 01-4.97-5.207c-1.439-3.575-.205-5.636.658-6.549a5.933 5.933 0 016.089-1.314 1.07 1.07 0 01.377 1.824 1.088 1.088 0 01-1.06.216 3.785 3.785 0 00-3.833.752c-.893.941-.972 2.42-.223 4.275a7.201 7.201 0 003.231 3.734 4.89 4.89 0 01-.946-2.797 3.1 3.1 0 011.512-2.505 3.837 3.837 0 013.436-.402c2.65.873 5.186 4.202 6.299 6.664h7.66c1.112-2.462 3.648-5.791 6.299-6.664a3.844 3.844 0 013.435.402 3.104 3.104 0 011.513 2.505 4.906 4.906 0 01-.945 2.797 7.22 7.22 0 003.23-3.734c.748-1.855.67-3.334-.224-4.275a3.782 3.782 0 00-3.833-.752 1.075 1.075 0 11-.683-2.04 5.93 5.93 0 016.089 1.314c.865.91 2.097 2.971.658 6.549a9.247 9.247 0 01-4.976 5.207c1.257.123 2.526.051 3.761-.214 4.403-.884 7.22-6.336 6.795-10.629zM149 146.664c-.597 0-1.08-.481-1.08-1.074v-7.515c0-.593.483-1.074 1.08-1.074.597 0 1.081.481 1.081 1.074v7.515c0 .593-.484 1.074-1.081 1.074zm11.176 217.66a2.057 2.057 0 01-.13.455 2.667 2.667 0 01-2.451 1.522c-2.738 0-4.063-1.148-4.707-2.147h-7.874c-.648.999-1.968 2.147-4.706 2.147a2.666 2.666 0 01-2.451-1.522 2.005 2.005 0 01-.13-.455 2.472 2.472 0 00-.856.487 3.305 3.305 0 00-.885 2.564 2.182 2.182 0 00.973 1.925 6.091 6.091 0 005.135.29 11.71 11.71 0 003.861-2.899c.019-.023.04-.044.061-.065a1.086 1.086 0 011.461-.079c.434.356.52.982.199 1.441-1.096 1.905-2.711 5.572-2.021 7.637a9.124 9.124 0 002.216 3.375v-6.257c0-.593.484-1.074 1.08-1.074.597 0 1.081.481 1.081 1.074V379a9.137 9.137 0 002.216-3.375c.697-2.083-.955-5.798-2.047-7.679a1.07 1.07 0 01.129-1.301l.032-.032a1.079 1.079 0 011.602.105 11.563 11.563 0 003.847 2.876c1.669.666 3.55.56 5.132-.29a2.178 2.178 0 00.973-1.929 3.297 3.297 0 00-.885-2.564 2.459 2.459 0 00-.855-.487zm-6.86-.402c.596 0 1.08-.481 1.08-1.073 0-.593-.484-1.074-1.08-1.074h-8.644c-.596 0-1.08.481-1.08 1.074 0 .592.484 1.073 1.08 1.073h8.644z" fill="#F3E4B6"/><path d="M173.958 351.943c-.207-2.054-1.335-5.5-6.591-5.5-10.565 0-14.729 10.873-15.175 12.132a1.103 1.103 0 01-1.196.723 1.064 1.064 0 01-.915-1.045c0-.087.011-.172.032-.256 1.236-7.897 3.819-11.134 5.896-13.742 1.576-1.971 2.715-3.395 2.715-6.401 0-5.19-5.71-10.479-8.643-12.854v11.781c0 .593-.484 1.073-1.081 1.073s-1.08-.48-1.08-1.073v-11.779c-2.934 2.377-8.644 7.672-8.644 12.852 0 3.006 1.139 4.43 2.715 6.405 2.076 2.603 4.658 5.839 5.895 13.728a1.075 1.075 0 01-.876 1.325 1.08 1.08 0 01-1.197-.724c-.443-1.252-4.606-12.145-15.18-12.145-5.256 0-6.384 3.446-6.59 5.5-.427 4.294 2.391 9.749 6.806 10.629 1.235.265 2.503.338 3.76.214a9.255 9.255 0 01-4.97-5.207c-1.439-3.575-.205-5.636.658-6.549a5.933 5.933 0 016.089-1.314 1.07 1.07 0 01.377 1.824 1.088 1.088 0 01-1.06.216 3.785 3.785 0 00-3.833.752c-.893.941-.972 2.42-.223 4.275a7.201 7.201 0 003.231 3.734 4.89 4.89 0 01-.946-2.797 3.1 3.1 0 011.512-2.505 3.837 3.837 0 013.436-.402c2.65.873 5.186 4.202 6.299 6.664h7.66c1.112-2.462 3.648-5.791 6.299-6.664a3.844 3.844 0 013.435.402 3.104 3.104 0 011.513 2.505 4.906 4.906 0 01-.945 2.797 7.22 7.22 0 003.23-3.734c.748-1.855.67-3.334-.224-4.275a3.782 3.782 0 00-3.833-.752 1.075 1.075 0 11-.683-2.04 5.93 5.93 0 016.089 1.314c.865.91 2.097 2.971.658 6.549a9.247 9.247 0 01-4.976 5.207c1.257.123 2.526.051 3.761-.214 4.403-.884 7.22-6.336 6.795-10.629zM149 349.664c-.597 0-1.08-.481-1.08-1.074v-7.515c0-.593.483-1.074 1.08-1.074.597 0 1.081.481 1.081 1.074v7.515c0 .593-.484 1.074-1.081 1.074zm213.176-179.34a2.057 2.057 0 01-.13.455 2.667 2.667 0 01-2.451 1.522c-2.738 0-4.063-1.148-4.707-2.147h-7.874c-.648.999-1.968 2.147-4.706 2.147a2.666 2.666 0 01-2.451-1.522 2.005 2.005 0 01-.13-.455 2.472 2.472 0 00-.856.487 3.305 3.305 0 00-.885 2.564 2.182 2.182 0 00.973 1.925 6.091 6.091 0 005.135.29 11.71 11.71 0 003.861-2.899 1.086 1.086 0 011.522-.144c.434.356.52.982.199 1.441-1.096 1.905-2.711 5.572-2.021 7.637a9.124 9.124 0 002.216 3.375v-6.257c0-.593.484-1.074 1.08-1.074.597 0 1.081.481 1.081 1.074V185a9.137 9.137 0 002.216-3.375c.697-2.083-.955-5.798-2.047-7.679a1.07 1.07 0 01.129-1.301l.032-.032a1.079 1.079 0 011.602.105 11.563 11.563 0 003.847 2.876c1.669.666 3.55.56 5.132-.29a2.178 2.178 0 00.973-1.929 3.297 3.297 0 00-.885-2.564 2.459 2.459 0 00-.855-.487zm-6.86-.402c.596 0 1.08-.481 1.08-1.073 0-.593-.484-1.074-1.08-1.074h-8.644c-.596 0-1.08.481-1.08 1.074 0 .592.484 1.073 1.08 1.073h8.644z" fill="#F3E4B6"/><path d="M375.958 157.943c-.207-2.054-1.335-5.5-6.591-5.5-10.565 0-14.729 10.873-15.175 12.132a1.103 1.103 0 01-1.196.723 1.064 1.064 0 01-.915-1.045c0-.087.011-.172.032-.256 1.236-7.897 3.819-11.134 5.896-13.742 1.576-1.971 2.715-3.395 2.715-6.401 0-5.19-5.71-10.479-8.643-12.854v11.781c0 .593-.484 1.073-1.081 1.073s-1.08-.48-1.08-1.073v-11.779c-2.934 2.377-8.644 7.672-8.644 12.852 0 3.006 1.139 4.43 2.715 6.405 2.076 2.603 4.658 5.839 5.895 13.728a1.075 1.075 0 01-.876 1.325 1.08 1.08 0 01-1.197-.724c-.443-1.252-4.606-12.145-15.18-12.145-5.256 0-6.384 3.446-6.59 5.5-.427 4.294 2.391 9.749 6.806 10.629 1.235.265 2.503.338 3.76.214a9.255 9.255 0 01-4.97-5.207c-1.439-3.575-.205-5.636.658-6.549a5.933 5.933 0 016.089-1.314 1.07 1.07 0 01.377 1.824 1.088 1.088 0 01-1.06.216 3.785 3.785 0 00-3.833.752c-.893.941-.972 2.42-.223 4.275a7.201 7.201 0 003.231 3.734 4.89 4.89 0 01-.946-2.797 3.1 3.1 0 011.512-2.505 3.837 3.837 0 013.436-.402c2.65.873 5.186 4.202 6.299 6.664h7.66c1.112-2.462 3.648-5.791 6.299-6.664a3.844 3.844 0 013.435.402 3.104 3.104 0 011.513 2.505 4.906 4.906 0 01-.945 2.797 7.22 7.22 0 003.23-3.734c.748-1.855.67-3.334-.224-4.275a3.782 3.782 0 00-3.833-.752 1.075 1.075 0 11-.683-2.04 5.93 5.93 0 016.089 1.314c.865.91 2.097 2.971.658 6.549a9.247 9.247 0 01-4.976 5.207c1.257.123 2.526.051 3.761-.214 4.403-.884 7.22-6.336 6.795-10.629zM351 155.664c-.597 0-1.08-.481-1.08-1.074v-7.515c0-.593.483-1.074 1.08-1.074.597 0 1.081.481 1.081 1.074v7.515c0 .593-.484 1.074-1.081 1.074zm11.176 217.66a2.057 2.057 0 01-.13.455 2.667 2.667 0 01-2.451 1.522c-2.738 0-4.063-1.148-4.707-2.147h-7.874c-.648.999-1.968 2.147-4.706 2.147a2.666 2.666 0 01-2.451-1.522 2.005 2.005 0 01-.13-.455 2.472 2.472 0 00-.856.487 3.305 3.305 0 00-.885 2.564 2.182 2.182 0 00.973 1.925 6.091 6.091 0 005.135.29 11.71 11.71 0 003.861-2.899c.019-.023.04-.044.061-.065a1.086 1.086 0 011.461-.079c.434.356.52.982.199 1.441-1.096 1.905-2.711 5.572-2.021 7.637a9.124 9.124 0 002.216 3.375v-6.257c0-.593.484-1.074 1.08-1.074.597 0 1.081.481 1.081 1.074V388a9.137 9.137 0 002.216-3.375c.697-2.083-.955-5.798-2.047-7.679a1.07 1.07 0 01.129-1.301l.032-.032a1.079 1.079 0 011.602.105 11.563 11.563 0 003.847 2.876c1.669.666 3.55.56 5.132-.29a2.178 2.178 0 00.973-1.929 3.297 3.297 0 00-.885-2.564 2.459 2.459 0 00-.855-.487zm-6.86-.402c.596 0 1.08-.481 1.08-1.073 0-.593-.484-1.074-1.08-1.074h-8.644c-.596 0-1.08.481-1.08 1.074 0 .592.484 1.073 1.08 1.073h8.644z" fill="#F3E4B6"/><path d="M375.958 360.943c-.207-2.054-1.335-5.5-6.591-5.5-10.565 0-14.729 10.873-15.175 12.132a1.103 1.103 0 01-1.196.723 1.064 1.064 0 01-.915-1.045c0-.087.011-.172.032-.256 1.236-7.897 3.819-11.134 5.896-13.742 1.576-1.971 2.715-3.395 2.715-6.401 0-5.19-5.71-10.479-8.643-12.854v11.781c0 .593-.484 1.073-1.081 1.073s-1.08-.48-1.08-1.073v-11.779c-2.934 2.377-8.644 7.672-8.644 12.852 0 3.006 1.139 4.43 2.715 6.405 2.076 2.603 4.658 5.839 5.895 13.728a1.075 1.075 0 01-.876 1.325 1.08 1.08 0 01-1.197-.724c-.443-1.252-4.606-12.145-15.18-12.145-5.256 0-6.384 3.446-6.59 5.5-.427 4.294 2.391 9.749 6.806 10.629 1.235.265 2.503.338 3.76.214a9.255 9.255 0 01-4.97-5.207c-1.439-3.575-.205-5.636.658-6.549a5.933 5.933 0 016.089-1.314 1.07 1.07 0 01.377 1.824 1.088 1.088 0 01-1.06.216 3.785 3.785 0 00-3.833.752c-.893.941-.972 2.42-.223 4.275a7.201 7.201 0 003.231 3.734 4.89 4.89 0 01-.946-2.797 3.1 3.1 0 011.512-2.505 3.837 3.837 0 013.436-.402c2.65.873 5.186 4.202 6.299 6.664h7.66c1.112-2.462 3.648-5.791 6.299-6.664a3.844 3.844 0 013.435.402 3.104 3.104 0 011.513 2.505 4.906 4.906 0 01-.945 2.797 7.22 7.22 0 003.23-3.734c.748-1.855.67-3.334-.224-4.275a3.782 3.782 0 00-3.833-.752 1.075 1.075 0 11-.683-2.04 5.93 5.93 0 016.089 1.314c.865.91 2.097 2.971.658 6.549a9.247 9.247 0 01-4.976 5.207c1.257.123 2.526.051 3.761-.214 4.403-.884 7.22-6.336 6.795-10.629zM351 358.664c-.597 0-1.08-.481-1.08-1.074v-7.515c0-.593.483-1.074 1.08-1.074.597 0 1.081.481 1.081 1.074v7.515c0 .593-.484 1.074-1.081 1.074zM59.176 59.324a2.05 2.05 0 01-.13.455 2.67 2.67 0 01-2.451 1.522c-2.738 0-4.063-1.148-4.707-2.147h-7.874c-.648.999-1.968 2.147-4.706 2.147a2.67 2.67 0 01-2.451-1.522 2.054 2.054 0 01-.13-.455c-.315.103-.606.27-.856.487a3.302 3.302 0 00-.885 2.564 2.18 2.18 0 00.973 1.925 6.095 6.095 0 005.135.29 11.72 11.72 0 003.861-2.899 1.085 1.085 0 011.522-.144c.434.356.52.983.2 1.441-1.097 1.905-2.712 5.572-2.022 7.637A9.126 9.126 0 0046.871 74v-6.257c0-.593.484-1.073 1.08-1.073.597 0 1.08.48 1.08 1.073V74a9.13 9.13 0 002.217-3.375c.697-2.083-.955-5.798-2.047-7.679a1.068 1.068 0 01.129-1.301l.032-.032a1.078 1.078 0 011.602.105 11.554 11.554 0 003.847 2.876c1.669.666 3.55.56 5.132-.29a2.18 2.18 0 00.973-1.929 3.301 3.301 0 00-.884-2.564 2.46 2.46 0 00-.856-.487zm-6.86-.402c.596 0 1.08-.48 1.08-1.073s-.484-1.074-1.08-1.074h-8.644c-.596 0-1.08.48-1.08 1.074 0 .592.483 1.073 1.08 1.073h8.644z" fill="#F3E4B6"/><path d="M72.958 46.943c-.207-2.054-1.335-5.5-6.59-5.5-10.566 0-14.73 10.873-15.176 12.132a1.104 1.104 0 01-1.196.723 1.065 1.065 0 01-.916-1.045c.001-.087.012-.172.033-.256 1.236-7.897 3.82-11.134 5.896-13.742 1.576-1.971 2.715-3.395 2.715-6.4 0-5.19-5.71-10.48-8.643-12.855v11.78c0 .593-.484 1.074-1.08 1.074-.598 0-1.081-.48-1.081-1.073V20.002c-2.934 2.377-8.644 7.672-8.644 12.852 0 3.006 1.14 4.43 2.715 6.405 2.076 2.603 4.658 5.838 5.895 13.728a1.076 1.076 0 01-.876 1.325 1.08 1.08 0 01-1.197-.724c-.443-1.252-4.606-12.145-15.18-12.145-5.256 0-6.384 3.446-6.59 5.5-.427 4.294 2.39 9.75 6.806 10.629a12.2 12.2 0 003.76.214 9.259 9.259 0 01-4.97-5.207c-1.439-3.575-.205-5.636.658-6.548a5.933 5.933 0 016.09-1.315 1.071 1.071 0 01.377 1.824 1.087 1.087 0 01-1.06.216 3.784 3.784 0 00-3.834.752c-.893.941-.972 2.42-.224 4.275a7.207 7.207 0 003.232 3.734 4.895 4.895 0 01-.946-2.797 3.1 3.1 0 011.512-2.505 3.837 3.837 0 013.436-.402c2.65.873 5.186 4.202 6.299 6.664h7.66c1.111-2.462 3.648-5.791 6.299-6.664a3.844 3.844 0 013.435.402 3.1 3.1 0 011.513 2.505 4.9 4.9 0 01-.945 2.797 7.214 7.214 0 003.23-3.734c.748-1.855.67-3.334-.224-4.275a3.783 3.783 0 00-3.833-.752 1.083 1.083 0 01-1.368-.68 1.073 1.073 0 01.685-1.36 5.93 5.93 0 016.09 1.315c.864.909 2.096 2.97.657 6.548a9.25 9.25 0 01-4.976 5.207c1.257.123 2.526.05 3.76-.214 4.404-.884 7.221-6.336 6.796-10.629zM48 44.663c-.597 0-1.08-.48-1.08-1.073v-7.515c0-.593.483-1.074 1.08-1.074.597 0 1.08.481 1.08 1.074v7.515c0 .593-.483 1.074-1.08 1.074zm11.176 217.661a2.046 2.046 0 01-.13.455 2.668 2.668 0 01-2.451 1.522c-2.738 0-4.063-1.148-4.707-2.147h-7.874c-.648.999-1.968 2.147-4.706 2.147a2.668 2.668 0 01-2.451-1.522 2.051 2.051 0 01-.13-.455 2.46 2.46 0 00-.856.487 3.303 3.303 0 00-.885 2.564 2.18 2.18 0 00.973 1.925 6.092 6.092 0 005.135.29 11.715 11.715 0 003.861-2.899 1.086 1.086 0 011.522-.144c.434.356.52.982.2 1.441-1.097 1.905-2.712 5.572-2.022 7.637A9.124 9.124 0 0046.871 277v-6.257c0-.593.484-1.074 1.08-1.074.597 0 1.08.481 1.08 1.074V277a9.128 9.128 0 002.217-3.375c.697-2.083-.955-5.798-2.047-7.679a1.068 1.068 0 01.129-1.301l.032-.032a1.078 1.078 0 011.602.105 11.561 11.561 0 003.847 2.876c1.669.666 3.55.56 5.132-.29a2.179 2.179 0 00.973-1.929 3.303 3.303 0 00-.884-2.564 2.458 2.458 0 00-.856-.487zm-6.86-.402c.596 0 1.08-.481 1.08-1.073 0-.593-.484-1.074-1.08-1.074h-8.644c-.596 0-1.08.481-1.08 1.074 0 .592.483 1.073 1.08 1.073h8.644z" fill="#F3E4B6"/><path d="M72.958 249.943c-.207-2.054-1.335-5.5-6.59-5.5-10.566 0-14.73 10.873-15.176 12.132a1.102 1.102 0 01-1.196.723 1.065 1.065 0 01-.916-1.045c.001-.087.012-.172.033-.256 1.236-7.897 3.82-11.134 5.896-13.742 1.576-1.971 2.715-3.395 2.715-6.401 0-5.19-5.71-10.479-8.643-12.854v11.781c0 .593-.484 1.073-1.08 1.073-.598 0-1.081-.48-1.081-1.073v-11.779c-2.934 2.377-8.644 7.672-8.644 12.852 0 3.006 1.14 4.43 2.715 6.405 2.076 2.603 4.658 5.839 5.895 13.728a1.075 1.075 0 01-.876 1.325 1.08 1.08 0 01-1.197-.724c-.443-1.252-4.606-12.145-15.18-12.145-5.256 0-6.384 3.446-6.59 5.5-.427 4.294 2.39 9.749 6.806 10.629 1.235.265 2.503.338 3.76.214a9.255 9.255 0 01-4.97-5.207c-1.439-3.575-.205-5.636.658-6.549a5.933 5.933 0 016.09-1.314 1.071 1.071 0 01.377 1.824 1.087 1.087 0 01-1.06.216 3.785 3.785 0 00-3.834.752c-.893.941-.972 2.42-.224 4.275a7.205 7.205 0 003.232 3.734 4.895 4.895 0 01-.946-2.797 3.103 3.103 0 011.512-2.505 3.836 3.836 0 013.436-.402c2.65.873 5.186 4.202 6.299 6.664h7.66c1.111-2.462 3.648-5.791 6.299-6.664a3.846 3.846 0 013.435.402 3.103 3.103 0 011.513 2.505 4.902 4.902 0 01-.945 2.797 7.216 7.216 0 003.23-3.734c.748-1.855.67-3.334-.224-4.275a3.783 3.783 0 00-3.833-.752 1.083 1.083 0 01-1.368-.68 1.074 1.074 0 01.685-1.36 5.931 5.931 0 016.09 1.314c.864.91 2.096 2.971.657 6.549a9.247 9.247 0 01-4.976 5.207c1.257.123 2.526.051 3.76-.214 4.404-.884 7.221-6.336 6.796-10.629zM48 247.664c-.597 0-1.08-.481-1.08-1.074v-7.515c0-.593.483-1.074 1.08-1.074.597 0 1.08.481 1.08 1.074v7.515c0 .593-.483 1.074-1.08 1.074zm11.176 217.66a2.046 2.046 0 01-.13.455 2.668 2.668 0 01-2.451 1.522c-2.738 0-4.063-1.148-4.707-2.147h-7.874c-.648.999-1.968 2.147-4.706 2.147a2.668 2.668 0 01-2.451-1.522 2.051 2.051 0 01-.13-.455 2.46 2.46 0 00-.856.487 3.303 3.303 0 00-.885 2.564 2.18 2.18 0 00.973 1.925 6.092 6.092 0 005.135.29 11.715 11.715 0 003.861-2.899 1.086 1.086 0 011.522-.144c.434.356.52.982.2 1.441-1.097 1.905-2.712 5.572-2.022 7.637A9.124 9.124 0 0046.871 480v-6.257c0-.593.484-1.074 1.08-1.074.597 0 1.08.481 1.08 1.074V480a9.128 9.128 0 002.217-3.375c.697-2.083-.955-5.798-2.047-7.679a1.068 1.068 0 01.129-1.301l.032-.032a1.078 1.078 0 011.602.105 11.561 11.561 0 003.847 2.876c1.669.666 3.55.56 5.132-.29a2.179 2.179 0 00.973-1.929 3.303 3.303 0 00-.884-2.564 2.458 2.458 0 00-.856-.487zm-6.86-.402c.596 0 1.08-.481 1.08-1.073 0-.593-.484-1.074-1.08-1.074h-8.644c-.596 0-1.08.481-1.08 1.074 0 .592.483 1.073 1.08 1.073h8.644z" fill="#F3E4B6"/><path d="M72.958 452.943c-.207-2.054-1.335-5.5-6.59-5.5-10.566 0-14.73 10.873-15.176 12.132a1.102 1.102 0 01-1.196.723 1.065 1.065 0 01-.916-1.045c.001-.087.012-.172.033-.256 1.236-7.897 3.82-11.134 5.896-13.742 1.576-1.971 2.715-3.395 2.715-6.401 0-5.19-5.71-10.479-8.643-12.854v11.781c0 .593-.484 1.073-1.08 1.073-.598 0-1.081-.48-1.081-1.073v-11.779c-2.934 2.377-8.644 7.672-8.644 12.852 0 3.006 1.14 4.43 2.715 6.405 2.076 2.603 4.658 5.839 5.895 13.728a1.075 1.075 0 01-.876 1.325 1.08 1.08 0 01-1.197-.724c-.443-1.252-4.606-12.145-15.18-12.145-5.256 0-6.384 3.446-6.59 5.5-.427 4.294 2.39 9.749 6.806 10.629 1.235.265 2.503.338 3.76.214a9.255 9.255 0 01-4.97-5.207c-1.439-3.575-.205-5.636.658-6.549a5.933 5.933 0 016.09-1.314 1.071 1.071 0 01.377 1.824 1.087 1.087 0 01-1.06.216 3.785 3.785 0 00-3.834.752c-.893.941-.972 2.42-.224 4.275a7.205 7.205 0 003.232 3.734 4.895 4.895 0 01-.946-2.797 3.103 3.103 0 011.512-2.505 3.836 3.836 0 013.436-.402c2.65.873 5.186 4.202 6.299 6.664h7.66c1.111-2.462 3.648-5.791 6.299-6.664a3.846 3.846 0 013.435.402 3.103 3.103 0 011.513 2.505 4.902 4.902 0 01-.945 2.797 7.216 7.216 0 003.23-3.734c.748-1.855.67-3.334-.224-4.275a3.783 3.783 0 00-3.833-.752 1.083 1.083 0 01-1.368-.68 1.074 1.074 0 01.685-1.36 5.931 5.931 0 016.09 1.314c.864.91 2.096 2.971.657 6.549a9.247 9.247 0 01-4.976 5.207c1.257.123 2.526.051 3.76-.214 4.404-.884 7.221-6.336 6.796-10.629zM48 450.664c-.597 0-1.08-.481-1.08-1.074v-7.515c0-.593.483-1.074 1.08-1.074.597 0 1.08.481 1.08 1.074v7.515c0 .593-.483 1.074-1.08 1.074zm415.176-391.34a2.06 2.06 0 01-.13.455 2.67 2.67 0 01-2.451 1.522c-2.738 0-4.063-1.148-4.707-2.147h-7.874c-.648.999-1.968 2.147-4.706 2.147a2.669 2.669 0 01-2.451-1.522 2.008 2.008 0 01-.13-.455 2.48 2.48 0 00-.856.487 3.303 3.303 0 00-.885 2.564 2.183 2.183 0 00.973 1.925 6.094 6.094 0 005.135.29 11.714 11.714 0 003.861-2.899 1.085 1.085 0 011.522-.144c.434.356.52.983.199 1.441-1.096 1.905-2.711 5.572-2.021 7.637A9.126 9.126 0 00450.871 74v-6.257c0-.593.484-1.073 1.08-1.073.597 0 1.081.48 1.081 1.073V74a9.14 9.14 0 002.216-3.375c.697-2.083-.955-5.798-2.047-7.679a1.07 1.07 0 01.129-1.301l.032-.032a1.078 1.078 0 011.602.105 11.555 11.555 0 003.847 2.876c1.669.666 3.55.56 5.132-.29a2.18 2.18 0 00.973-1.929 3.296 3.296 0 00-.885-2.564 2.46 2.46 0 00-.855-.487zm-6.86-.402c.596 0 1.08-.48 1.08-1.073s-.484-1.074-1.08-1.074h-8.644c-.596 0-1.08.48-1.08 1.074 0 .592.484 1.073 1.08 1.073h8.644z" fill="#F3E4B6"/><path d="M476.958 46.943c-.207-2.054-1.335-5.5-6.591-5.5-10.565 0-14.729 10.873-15.175 12.132a1.104 1.104 0 01-1.196.723 1.064 1.064 0 01-.915-1.045c0-.087.011-.172.032-.256 1.236-7.897 3.819-11.134 5.896-13.742 1.576-1.971 2.715-3.395 2.715-6.4 0-5.19-5.71-10.48-8.643-12.855v11.78c0 .593-.484 1.074-1.081 1.074s-1.08-.48-1.08-1.073V20.002c-2.934 2.377-8.644 7.672-8.644 12.852 0 3.006 1.139 4.43 2.715 6.405 2.076 2.603 4.658 5.838 5.895 13.728a1.076 1.076 0 01-.876 1.325 1.081 1.081 0 01-1.197-.724c-.443-1.252-4.606-12.145-15.18-12.145-5.256 0-6.384 3.446-6.59 5.5-.427 4.294 2.391 9.75 6.806 10.629 1.235.265 2.503.338 3.76.214a9.26 9.26 0 01-4.97-5.207c-1.439-3.575-.205-5.636.658-6.548a5.932 5.932 0 016.089-1.315c.367.122.641.428.718.804a1.07 1.07 0 01-.341 1.02 1.088 1.088 0 01-1.06.216 3.784 3.784 0 00-3.833.752c-.893.941-.972 2.42-.223 4.275a7.203 7.203 0 003.231 3.734 4.89 4.89 0 01-.946-2.797 3.098 3.098 0 011.512-2.505 3.838 3.838 0 013.436-.402c2.65.873 5.186 4.202 6.299 6.664h7.66c1.112-2.462 3.648-5.791 6.299-6.664a3.843 3.843 0 013.435.402 3.102 3.102 0 011.513 2.505 4.906 4.906 0 01-.945 2.797 7.218 7.218 0 003.23-3.734c.748-1.855.67-3.334-.224-4.275a3.782 3.782 0 00-3.833-.752 1.084 1.084 0 01-1.368-.68 1.074 1.074 0 01.685-1.36 5.929 5.929 0 016.089 1.315c.865.909 2.097 2.97.658 6.548a9.251 9.251 0 01-4.976 5.207c1.257.123 2.526.05 3.761-.214 4.403-.884 7.22-6.336 6.795-10.629zM452 44.663c-.597 0-1.08-.48-1.08-1.073v-7.515c0-.593.483-1.074 1.08-1.074.597 0 1.081.481 1.081 1.074v7.515c0 .593-.484 1.074-1.081 1.074zm11.176 217.661a2.057 2.057 0 01-.13.455 2.667 2.667 0 01-2.451 1.522c-2.738 0-4.063-1.148-4.707-2.147h-7.874c-.648.999-1.968 2.147-4.706 2.147a2.666 2.666 0 01-2.451-1.522 2.005 2.005 0 01-.13-.455 2.472 2.472 0 00-.856.487 3.305 3.305 0 00-.885 2.564 2.182 2.182 0 00.973 1.925 6.091 6.091 0 005.135.29 11.71 11.71 0 003.861-2.899c.019-.023.04-.044.061-.065a1.086 1.086 0 011.461-.079c.434.356.52.982.199 1.441-1.096 1.905-2.711 5.572-2.021 7.637a9.124 9.124 0 002.216 3.375v-6.257c0-.593.484-1.074 1.08-1.074.597 0 1.081.481 1.081 1.074V277a9.137 9.137 0 002.216-3.375c.697-2.083-.955-5.798-2.047-7.679a1.07 1.07 0 01.129-1.301l.032-.032a1.079 1.079 0 011.602.105 11.563 11.563 0 003.847 2.876c1.669.666 3.55.56 5.132-.29a2.178 2.178 0 00.973-1.929 3.297 3.297 0 00-.885-2.564 2.459 2.459 0 00-.855-.487zm-6.86-.402c.596 0 1.08-.481 1.08-1.073 0-.593-.484-1.074-1.08-1.074h-8.644c-.596 0-1.08.481-1.08 1.074 0 .592.484 1.073 1.08 1.073h8.644z" fill="#F3E4B6"/><path d="M476.958 249.943c-.207-2.054-1.335-5.5-6.591-5.5-10.565 0-14.729 10.873-15.175 12.132a1.103 1.103 0 01-1.196.723 1.064 1.064 0 01-.915-1.045c0-.087.011-.172.032-.256 1.236-7.897 3.819-11.134 5.896-13.742 1.576-1.971 2.715-3.395 2.715-6.401 0-5.19-5.71-10.479-8.643-12.854v11.781c0 .593-.484 1.073-1.081 1.073s-1.08-.48-1.08-1.073v-11.779c-2.934 2.377-8.644 7.672-8.644 12.852 0 3.006 1.139 4.43 2.715 6.405 2.076 2.603 4.658 5.839 5.895 13.728a1.075 1.075 0 01-.876 1.325 1.08 1.08 0 01-1.197-.724c-.443-1.252-4.606-12.145-15.18-12.145-5.256 0-6.384 3.446-6.59 5.5-.427 4.294 2.391 9.749 6.806 10.629 1.235.265 2.503.338 3.76.214a9.255 9.255 0 01-4.97-5.207c-1.439-3.575-.205-5.636.658-6.549a5.933 5.933 0 016.089-1.314 1.07 1.07 0 01.377 1.824 1.088 1.088 0 01-1.06.216 3.785 3.785 0 00-3.833.752c-.893.941-.972 2.42-.223 4.275a7.201 7.201 0 003.231 3.734 4.89 4.89 0 01-.946-2.797 3.1 3.1 0 011.512-2.505 3.837 3.837 0 013.436-.402c2.65.873 5.186 4.202 6.299 6.664h7.66c1.112-2.462 3.648-5.791 6.299-6.664a3.844 3.844 0 013.435.402 3.104 3.104 0 011.513 2.505 4.906 4.906 0 01-.945 2.797 7.22 7.22 0 003.23-3.734c.748-1.855.67-3.334-.224-4.275a3.782 3.782 0 00-3.833-.752 1.075 1.075 0 11-.683-2.04 5.93 5.93 0 016.089 1.314c.865.91 2.097 2.971.658 6.549a9.247 9.247 0 01-4.976 5.207c1.257.123 2.526.051 3.761-.214 4.403-.884 7.22-6.336 6.795-10.629zM452 247.664c-.597 0-1.08-.481-1.08-1.074v-7.515c0-.593.483-1.074 1.08-1.074.597 0 1.081.481 1.081 1.074v7.515c0 .593-.484 1.074-1.081 1.074zm11.176 217.66a2.057 2.057 0 01-.13.455 2.667 2.667 0 01-2.451 1.522c-2.738 0-4.063-1.148-4.707-2.147h-7.874c-.648.999-1.968 2.147-4.706 2.147a2.666 2.666 0 01-2.451-1.522 2.005 2.005 0 01-.13-.455 2.472 2.472 0 00-.856.487 3.305 3.305 0 00-.885 2.564 2.182 2.182 0 00.973 1.925 6.091 6.091 0 005.135.29 11.71 11.71 0 003.861-2.899c.019-.023.04-.044.061-.065a1.086 1.086 0 011.461-.079c.434.356.52.982.199 1.441-1.096 1.905-2.711 5.572-2.021 7.637a9.124 9.124 0 002.216 3.375v-6.257c0-.593.484-1.074 1.08-1.074.597 0 1.081.481 1.081 1.074V480a9.137 9.137 0 002.216-3.375c.697-2.083-.955-5.798-2.047-7.679a1.07 1.07 0 01.129-1.301l.032-.032a1.079 1.079 0 011.602.105 11.563 11.563 0 003.847 2.876c1.669.666 3.55.56 5.132-.29a2.178 2.178 0 00.973-1.929 3.297 3.297 0 00-.885-2.564 2.459 2.459 0 00-.855-.487zm-6.86-.402c.596 0 1.08-.481 1.08-1.073 0-.593-.484-1.074-1.08-1.074h-8.644c-.596 0-1.08.481-1.08 1.074 0 .592.484 1.073 1.08 1.073h8.644z" fill="#F3E4B6"/><path d="M476.958 452.943c-.207-2.054-1.335-5.5-6.591-5.5-10.565 0-14.729 10.873-15.175 12.132a1.103 1.103 0 01-1.196.723 1.064 1.064 0 01-.915-1.045c0-.087.011-.172.032-.256 1.236-7.897 3.819-11.134 5.896-13.742 1.576-1.971 2.715-3.395 2.715-6.401 0-5.19-5.71-10.479-8.643-12.854v11.781c0 .593-.484 1.073-1.081 1.073s-1.08-.48-1.08-1.073v-11.779c-2.934 2.377-8.644 7.672-8.644 12.852 0 3.006 1.139 4.43 2.715 6.405 2.076 2.603 4.658 5.839 5.895 13.728a1.075 1.075 0 01-.876 1.325 1.08 1.08 0 01-1.197-.724c-.443-1.252-4.606-12.145-15.18-12.145-5.256 0-6.384 3.446-6.59 5.5-.427 4.294 2.391 9.749 6.806 10.629 1.235.265 2.503.338 3.76.214a9.255 9.255 0 01-4.97-5.207c-1.439-3.575-.205-5.636.658-6.549a5.933 5.933 0 016.089-1.314 1.07 1.07 0 01.377 1.824 1.088 1.088 0 01-1.06.216 3.785 3.785 0 00-3.833.752c-.893.941-.972 2.42-.223 4.275a7.201 7.201 0 003.231 3.734 4.89 4.89 0 01-.946-2.797 3.1 3.1 0 011.512-2.505 3.837 3.837 0 013.436-.402c2.65.873 5.186 4.202 6.299 6.664h7.66c1.112-2.462 3.648-5.791 6.299-6.664a3.844 3.844 0 013.435.402 3.104 3.104 0 011.513 2.505 4.906 4.906 0 01-.945 2.797 7.22 7.22 0 003.23-3.734c.748-1.855.67-3.334-.224-4.275a3.782 3.782 0 00-3.833-.752 1.075 1.075 0 11-.683-2.04 5.93 5.93 0 016.089 1.314c.865.91 2.097 2.971.658 6.549a9.247 9.247 0 01-4.976 5.207c1.257.123 2.526.051 3.761-.214 4.403-.884 7.22-6.336 6.795-10.629zM452 450.664c-.597 0-1.08-.481-1.08-1.074v-7.515c0-.593.483-1.074 1.08-1.074.597 0 1.081.481 1.081 1.074v7.515c0 .593-.484 1.074-1.081 1.074zM261.176 59.324a2.06 2.06 0 01-.13.455 2.67 2.67 0 01-2.451 1.522c-2.738 0-4.063-1.148-4.707-2.147h-7.874c-.648.999-1.968 2.147-4.706 2.147a2.669 2.669 0 01-2.451-1.522 2.008 2.008 0 01-.13-.455 2.48 2.48 0 00-.856.487 3.303 3.303 0 00-.885 2.564 2.183 2.183 0 00.973 1.925 6.094 6.094 0 005.135.29 11.714 11.714 0 003.861-2.899 1.085 1.085 0 011.522-.144c.434.356.52.983.199 1.441-1.096 1.905-2.711 5.572-2.021 7.637A9.126 9.126 0 00248.871 74v-6.257c0-.593.484-1.073 1.08-1.073.597 0 1.081.48 1.081 1.073V74a9.14 9.14 0 002.216-3.375c.697-2.083-.955-5.798-2.047-7.679a1.07 1.07 0 01.129-1.301l.032-.032a1.078 1.078 0 011.602.105 11.555 11.555 0 003.847 2.876c1.669.666 3.55.56 5.132-.29a2.18 2.18 0 00.973-1.929 3.296 3.296 0 00-.885-2.564 2.46 2.46 0 00-.855-.487zm-6.86-.402c.596 0 1.08-.48 1.08-1.073s-.484-1.074-1.08-1.074h-8.644c-.596 0-1.08.48-1.08 1.074 0 .592.484 1.073 1.08 1.073h8.644z" fill="#F3E4B6"/><path d="M274.958 46.943c-.207-2.054-1.335-5.5-6.591-5.5-10.565 0-14.729 10.873-15.175 12.132a1.104 1.104 0 01-1.196.723 1.064 1.064 0 01-.915-1.045c0-.087.011-.172.032-.256 1.236-7.897 3.819-11.134 5.896-13.742 1.576-1.971 2.715-3.395 2.715-6.4 0-5.19-5.71-10.48-8.643-12.855v11.78c0 .593-.484 1.074-1.081 1.074s-1.08-.48-1.08-1.073V20.002c-2.934 2.377-8.644 7.672-8.644 12.852 0 3.006 1.139 4.43 2.715 6.405 2.076 2.603 4.658 5.838 5.895 13.728a1.076 1.076 0 01-.876 1.325 1.081 1.081 0 01-1.197-.724c-.443-1.252-4.606-12.145-15.18-12.145-5.256 0-6.384 3.446-6.59 5.5-.427 4.294 2.391 9.75 6.806 10.629 1.235.265 2.503.338 3.76.214a9.26 9.26 0 01-4.97-5.207c-1.439-3.575-.205-5.636.658-6.548a5.932 5.932 0 016.089-1.315c.367.122.641.428.718.804a1.07 1.07 0 01-.341 1.02 1.088 1.088 0 01-1.06.216 3.784 3.784 0 00-3.833.752c-.893.941-.972 2.42-.223 4.275a7.203 7.203 0 003.231 3.734 4.89 4.89 0 01-.946-2.797 3.098 3.098 0 011.512-2.505 3.838 3.838 0 013.436-.402c2.65.873 5.186 4.202 6.299 6.664h7.66c1.112-2.462 3.648-5.791 6.299-6.664a3.843 3.843 0 013.435.402 3.102 3.102 0 011.513 2.505 4.906 4.906 0 01-.945 2.797 7.218 7.218 0 003.23-3.734c.748-1.855.67-3.334-.224-4.275a3.782 3.782 0 00-3.833-.752 1.084 1.084 0 01-1.368-.68 1.074 1.074 0 01.685-1.36 5.929 5.929 0 016.089 1.315c.865.909 2.097 2.97.658 6.548a9.251 9.251 0 01-4.976 5.207c1.257.123 2.526.05 3.761-.214 4.403-.884 7.22-6.336 6.795-10.629zM250 44.663c-.597 0-1.08-.48-1.08-1.073v-7.515c0-.593.483-1.074 1.08-1.074.597 0 1.081.481 1.081 1.074v7.515c0 .593-.484 1.074-1.081 1.074zm11.176 217.661a2.057 2.057 0 01-.13.455 2.667 2.667 0 01-2.451 1.522c-2.738 0-4.063-1.148-4.707-2.147h-7.874c-.648.999-1.968 2.147-4.706 2.147a2.666 2.666 0 01-2.451-1.522 2.005 2.005 0 01-.13-.455 2.472 2.472 0 00-.856.487 3.305 3.305 0 00-.885 2.564 2.182 2.182 0 00.973 1.925 6.091 6.091 0 005.135.29 11.71 11.71 0 003.861-2.899c.019-.023.04-.044.061-.065a1.086 1.086 0 011.461-.079c.434.356.52.982.199 1.441-1.096 1.905-2.711 5.572-2.021 7.637a9.124 9.124 0 002.216 3.375v-6.257c0-.593.484-1.074 1.08-1.074.597 0 1.081.481 1.081 1.074V277a9.137 9.137 0 002.216-3.375c.697-2.083-.955-5.798-2.047-7.679a1.07 1.07 0 01.129-1.301l.032-.032a1.079 1.079 0 011.602.105 11.563 11.563 0 003.847 2.876c1.669.666 3.55.56 5.132-.29a2.178 2.178 0 00.973-1.929 3.297 3.297 0 00-.885-2.564 2.459 2.459 0 00-.855-.487zm-6.86-.402c.596 0 1.08-.481 1.08-1.073 0-.593-.484-1.074-1.08-1.074h-8.644c-.596 0-1.08.481-1.08 1.074 0 .592.484 1.073 1.08 1.073h8.644z" fill="#F3E4B6"/><path d="M274.958 249.943c-.207-2.054-1.335-5.5-6.591-5.5-10.565 0-14.729 10.873-15.175 12.132a1.103 1.103 0 01-1.196.723 1.064 1.064 0 01-.915-1.045c0-.087.011-.172.032-.256 1.236-7.897 3.819-11.134 5.896-13.742 1.576-1.971 2.715-3.395 2.715-6.401 0-5.19-5.71-10.479-8.643-12.854v11.781c0 .593-.484 1.073-1.081 1.073s-1.08-.48-1.08-1.073v-11.779c-2.934 2.377-8.644 7.672-8.644 12.852 0 3.006 1.139 4.43 2.715 6.405 2.076 2.603 4.658 5.839 5.895 13.728a1.075 1.075 0 01-.876 1.325 1.08 1.08 0 01-1.197-.724c-.443-1.252-4.606-12.145-15.18-12.145-5.256 0-6.384 3.446-6.59 5.5-.427 4.294 2.391 9.749 6.806 10.629 1.235.265 2.503.338 3.76.214a9.255 9.255 0 01-4.97-5.207c-1.439-3.575-.205-5.636.658-6.549a5.933 5.933 0 016.089-1.314 1.07 1.07 0 01.377 1.824 1.088 1.088 0 01-1.06.216 3.785 3.785 0 00-3.833.752c-.893.941-.972 2.42-.223 4.275a7.201 7.201 0 003.231 3.734 4.89 4.89 0 01-.946-2.797 3.1 3.1 0 011.512-2.505 3.837 3.837 0 013.436-.402c2.65.873 5.186 4.202 6.299 6.664h7.66c1.112-2.462 3.648-5.791 6.299-6.664a3.844 3.844 0 013.435.402 3.104 3.104 0 011.513 2.505 4.906 4.906 0 01-.945 2.797 7.22 7.22 0 003.23-3.734c.748-1.855.67-3.334-.224-4.275a3.782 3.782 0 00-3.833-.752 1.075 1.075 0 11-.683-2.04 5.93 5.93 0 016.089 1.314c.865.91 2.097 2.971.658 6.549a9.247 9.247 0 01-4.976 5.207c1.257.123 2.526.051 3.761-.214 4.403-.884 7.22-6.336 6.795-10.629zM250 247.664c-.597 0-1.08-.481-1.08-1.074v-7.515c0-.593.483-1.074 1.08-1.074.597 0 1.081.481 1.081 1.074v7.515c0 .593-.484 1.074-1.081 1.074zm11.176 217.66a2.057 2.057 0 01-.13.455 2.667 2.667 0 01-2.451 1.522c-2.738 0-4.063-1.148-4.707-2.147h-7.874c-.648.999-1.968 2.147-4.706 2.147a2.666 2.666 0 01-2.451-1.522 2.005 2.005 0 01-.13-.455 2.472 2.472 0 00-.856.487 3.305 3.305 0 00-.885 2.564 2.182 2.182 0 00.973 1.925 6.091 6.091 0 005.135.29 11.71 11.71 0 003.861-2.899c.019-.023.04-.044.061-.065a1.086 1.086 0 011.461-.079c.434.356.52.982.199 1.441-1.096 1.905-2.711 5.572-2.021 7.637a9.124 9.124 0 002.216 3.375v-6.257c0-.593.484-1.074 1.08-1.074.597 0 1.081.481 1.081 1.074V480a9.137 9.137 0 002.216-3.375c.697-2.083-.955-5.798-2.047-7.679a1.07 1.07 0 01.129-1.301l.032-.032a1.079 1.079 0 011.602.105 11.563 11.563 0 003.847 2.876c1.669.666 3.55.56 5.132-.29a2.178 2.178 0 00.973-1.929 3.297 3.297 0 00-.885-2.564 2.459 2.459 0 00-.855-.487zm-6.86-.402c.596 0 1.08-.481 1.08-1.073 0-.593-.484-1.074-1.08-1.074h-8.644c-.596 0-1.08.481-1.08 1.074 0 .592.484 1.073 1.08 1.073h8.644z" fill="#F3E4B6"/><path d="M274.958 452.943c-.207-2.054-1.335-5.5-6.591-5.5-10.565 0-14.729 10.873-15.175 12.132a1.103 1.103 0 01-1.196.723 1.064 1.064 0 01-.915-1.045c0-.087.011-.172.032-.256 1.236-7.897 3.819-11.134 5.896-13.742 1.576-1.971 2.715-3.395 2.715-6.401 0-5.19-5.71-10.479-8.643-12.854v11.781c0 .593-.484 1.073-1.081 1.073s-1.08-.48-1.08-1.073v-11.779c-2.934 2.377-8.644 7.672-8.644 12.852 0 3.006 1.139 4.43 2.715 6.405 2.076 2.603 4.658 5.839 5.895 13.728a1.075 1.075 0 01-.876 1.325 1.08 1.08 0 01-1.197-.724c-.443-1.252-4.606-12.145-15.18-12.145-5.256 0-6.384 3.446-6.59 5.5-.427 4.294 2.391 9.749 6.806 10.629 1.235.265 2.503.338 3.76.214a9.255 9.255 0 01-4.97-5.207c-1.439-3.575-.205-5.636.658-6.549a5.933 5.933 0 016.089-1.314 1.07 1.07 0 01.377 1.824 1.088 1.088 0 01-1.06.216 3.785 3.785 0 00-3.833.752c-.893.941-.972 2.42-.223 4.275a7.201 7.201 0 003.231 3.734 4.89 4.89 0 01-.946-2.797 3.1 3.1 0 011.512-2.505 3.837 3.837 0 013.436-.402c2.65.873 5.186 4.202 6.299 6.664h7.66c1.112-2.462 3.648-5.791 6.299-6.664a3.844 3.844 0 013.435.402 3.104 3.104 0 011.513 2.505 4.906 4.906 0 01-.945 2.797 7.22 7.22 0 003.23-3.734c.748-1.855.67-3.334-.224-4.275a3.782 3.782 0 00-3.833-.752 1.075 1.075 0 11-.683-2.04 5.93 5.93 0 016.089 1.314c.865.91 2.097 2.971.658 6.549a9.247 9.247 0 01-4.976 5.207c1.257.123 2.526.051 3.761-.214 4.403-.884 7.22-6.336 6.795-10.629zM250 450.664c-.597 0-1.08-.481-1.08-1.074v-7.515c0-.593.483-1.074 1.08-1.074.597 0 1.081.481 1.081 1.074v7.515c0 .593-.484 1.074-1.081 1.074z" fill="#F3E4B6"/></svg>